HIERARCHY
ROOT Hips
{
	OFFSET 0.000000 0.000000 0.000000 
	CHANNELS 6 Xposition Yposition Zposition Zrotation Yrotation Xrotation
	JOINT LeftUpLeg
	{
		OFFSET 1.363060 -1.794630 0.839290 
		CHANNELS 3 Zrotation Yrotation Xrotation
		JOINT LeftLeg
		{
			OFFSET 2.448110 -6.726130 0.000000 
			CHANNELS 3 Zrotation Yrotation Xrotation
			JOINT LeftFoot
			{
				OFFSET 2.562200 -7.039590 0.000000 
				CHANNELS 3 Zrotation Yrotation Xrotation
				JOINT LeftToeBase
				{
					OFFSET 0.157640 -0.433110 2.322550 
					CHANNELS 3 Zrotation Yrotation Xrotation
					End Site
					{
						OFFSET 0.000000 0.000000 0.000000 
					}
				}
			}
		}
	}
	JOINT RightUpLeg
	{
		OFFSET -1.305520 -1.794630 0.839290 
		CHANNELS 3 Zrotation Yrotation Xrotation
		JOINT RightLeg
		{
			OFFSET -2.542530 -6.985550 0.000000 
			CHANNELS 3 Zrotation Yrotation Xrotation
			JOINT RightFoot
			{
				OFFSET -2.568260 -7.056230 0.000000 
				CHANNELS 3 Zrotation Yrotation Xrotation
				JOINT RightToeBase
				{
					OFFSET -0.164730 -0.452590 2.363150 
					CHANNELS 3 Zrotation Yrotation Xrotation
					End Site
					{
						OFFSET 0.000000 0.000000 0.000000 
					}
				}
			}
		}
	}
	JOINT Spine
	{
		OFFSET 0.028270 2.035590 -0.193380 
		CHANNELS 3 Zrotation Yrotation Xrotation
		JOINT Spine1
		{
			OFFSET 0.056720 2.048850 -0.042750 
			CHANNELS 3 Zrotation Yrotation Xrotation
			JOINT Neck1
			{
				OFFSET -0.054170 1.746240 0.172020 
				CHANNELS 3 Zrotation Yrotation Xrotation
				JOINT Head
				{
					OFFSET 0.104070 1.761360 -0.123970 
					CHANNELS 3 Zrotation Yrotation Xrotation
					End Site
					{
						OFFSET 0.000000 0.000000 0.000000 
					}
				}
			}
			JOINT LeftArm
			{
				OFFSET 3.362410 1.200890 -0.311210 
				CHANNELS 3 Zrotation Yrotation Xrotation
				JOINT LeftForeArm
				{
					OFFSET 4.983000 -0.000000 -0.000000 
					CHANNELS 3 Zrotation Yrotation Xrotation
					JOINT LeftHand
					{
						OFFSET 3.483560 -0.000000 -0.000000 
						CHANNELS 3 Zrotation Yrotation Xrotation
						JOINT LeftHandIndex1
						{
							OFFSET 0.715260 -0.000000 -0.000000 
							CHANNELS 3 Zrotation Yrotation Xrotation
							End Site
							{
								OFFSET 0.000000 0.000000 0.000000 
							}
						}
					}
				}
			}
			JOINT RightArm
			{
				OFFSET -3.136600 1.374050 -0.404650 
				CHANNELS 3 Zrotation Yrotation Xrotation
				JOINT RightForeArm
				{
					OFFSET -5.241900 -0.000000 -0.000000 
					CHANNELS 3 Zrotation Yrotation Xrotation
					JOINT RightHand
					{
						OFFSET -3.444170 -0.000000 -0.000000 
						CHANNELS 3 Zrotation Yrotation Xrotation
						JOINT RightHandIndex1
						{
							OFFSET -0.622530 -0.000000 -0.000000 
							CHANNELS 3 Zrotation Yrotation Xrotation
							End Site
							{
								OFFSET 0.000000 0.000000 0.000000 
							}
						}
					}
				}
			}
		}
	}
}
MOTION
Frames: 10
Frame Time: 0.041667
6.932050 18.317524 -1.907795 -171.192614 -40.369856 -174.449358 -9.689775 -7.596560 -25.633090 0.967538 7.472937 24.573345 -0.480086 3.132085 -1.792878 0.146100 2.462900 6.786900 10.027680 28.705347 -25.343245 -2.447099 -6.771319 24.547878 4.891275 -18.192661 2.969210 -0.010100 0.649600 -1.785100 -17.405693 3.784781 22.470449 1.878637 0.840487 -6.398822 2.359494 6.877859 30.798261 2.832700 2.625200 8.323500 -88.511367 -29.813668 54.502553 36.013744 -43.715656 -16.718676 1.814302 -1.466151 -91.203973 -7.125000 0.000000 0.000000 72.348413 12.896014 29.953265 -126.444070 56.735139 -93.751329 -1.489252 1.564613 -41.348239 7.125000 0.000000 0.000000 
6.929730 18.310273 -1.938348 -171.554246 -40.283709 -174.227921 -9.965493 -7.423520 -25.607620 0.972713 7.476475 24.612605 -0.475803 3.111922 -1.813632 0.137200 2.387200 6.576900 9.503633 28.704686 -25.534984 -2.423821 -6.716496 24.232166 5.136424 -19.091239 3.411826 -0.004700 0.444600 -1.221600 -17.476725 3.797920 22.465193 1.995745 0.843623 -6.464355 2.193642 6.883748 30.788453 2.783100 2.614800 8.330700 -88.176033 -29.392040 53.815132 35.910475 -43.646488 -16.629098 1.813189 -1.477608 -91.303271 -7.125000 0.000000 0.000000 72.775562 12.716900 30.749936 -126.040080 56.927851 -93.509246 -1.489136 1.584323 -41.109711 7.125000 0.000000 0.000000 
6.928956 18.303602 -1.972091 -171.653678 -40.224327 -174.218527 -10.042340 -7.175634 -25.593532 0.970801 7.481160 24.615154 -0.467611 3.083380 -1.772739 0.103300 2.072400 5.705800 9.207712 28.930124 -25.575060 -2.410275 -6.654271 23.948848 5.419627 -20.085260 3.671165 -0.001400 0.241500 -0.663500 -17.377576 3.822104 22.511159 2.030536 0.866583 -6.577579 2.194306 6.846501 30.802168 2.796000 2.589600 8.327100 -87.951632 -28.998040 53.174679 35.714482 -43.514485 -16.471213 1.820058 -1.490024 -91.403170 -7.125000 0.000000 0.000000 73.147238 12.441344 31.564500 -125.807132 57.063219 -93.376569 -1.490418 1.592926 -40.697694 7.125000 0.000000 0.000000 
6.921898 18.296447 -1.999937 -171.931423 -40.087499 -173.942163 -10.319962 -6.844898 -25.760106 0.978766 7.503490 24.679631 -0.454619 3.039127 -1.785120 0.068500 1.688300 4.645100 8.692523 29.001947 -25.874661 -2.377766 -6.583145 23.603342 5.631363 -20.857226 3.989397 0.000000 -0.016700 0.045800 -17.439268 3.850731 22.466973 2.027833 0.882124 -6.604389 2.253053 6.780485 30.647437 2.817100 2.561100 8.268400 -87.739311 -28.658389 52.384460 35.468366 -43.343977 -16.275868 1.832804 -1.495394 -91.549318 -7.125000 0.000000 0.000000 73.467793 12.219118 32.439502 -125.557600 57.197985 -93.241190 -1.491334 1.606168 -40.315778 7.125000 0.000000 0.000000 
6.913970 18.289099 -2.030973 -172.390870 -39.962594 -173.587363 -10.752438 -6.570697 -25.856713 1.004756 7.536318 24.829199 -0.440771 2.988360 -1.911664 0.044500 1.361100 3.743000 8.069969 28.951087 -26.124569 -2.327916 -6.498902 23.199952 5.805486 -21.494743 4.244028 -0.000900 -0.198800 0.546100 -17.214213 3.990265 22.621566 2.206305 0.967104 -6.508970 2.296560 6.639238 30.537022 2.848000 2.488700 8.256200 -87.863989 -28.509160 51.733295 35.078280 -43.066277 -15.979168 1.854334 -1.494378 -91.679659 -7.125000 0.000000 0.000000 73.550917 12.097959 33.132064 -125.340190 57.302794 -93.114818 -1.487022 1.615510 -39.800387 7.125000 0.000000 0.000000 
6.916870 18.280687 -2.069260 -172.285737 -39.877917 -173.801444 -10.729072 -6.249619 -25.842485 1.038907 7.578289 24.992406 -0.413908 2.891324 -1.990341 0.037800 1.254300 3.448800 7.969470 29.295291 -26.006851 -2.282427 -6.390436 22.821627 6.033083 -22.222373 4.142343 -0.001100 -0.211900 0.582300 -15.679220 4.142361 23.306434 2.800435 1.166783 -6.372975 2.034465 6.599980 30.324119 2.878400 2.394100 8.207800 -88.709630 -28.532698 51.294519 34.561493 -42.689681 -15.593460 1.881356 -1.506787 -91.560068 -7.125000 0.000000 0.000000 72.888966 12.081212 33.699678 -125.327784 57.295053 -93.112946 -1.472609 1.606102 -39.356955 7.125000 0.000000 0.000000 
6.924605 18.268022 -2.100103 -172.327571 -39.446324 -173.722398 -10.699506 -5.945076 -26.036419 1.058123 7.666670 25.139705 -0.440689 3.042741 -2.149375 0.027300 1.065900 2.930100 7.801265 29.871977 -26.044311 -2.239885 -6.255873 22.454675 6.235995 -22.815783 3.921236 -0.000200 -0.083600 0.229600 -17.076810 4.255250 22.742695 2.098933 1.106951 -6.618776 2.474091 6.510787 30.455222 2.913200 2.442300 8.243800 -87.380576 -28.021414 50.484038 34.252852 -42.483464 -15.359086 1.868677 -1.497581 -91.750696 -7.125000 0.000000 0.000000 74.259956 11.741183 35.018095 -125.273996 57.433571 -93.132905 -1.492576 1.634281 -38.581753 7.125000 0.000000 0.000000 
6.930116 18.256129 -2.134039 -172.753208 -39.132226 -173.456166 -11.012280 -5.785817 -26.056615 1.087584 7.715814 25.301236 -0.512923 3.339620 -2.423169 0.010100 0.648900 1.783300 7.320783 30.105153 -26.157309 -2.183136 -6.143932 22.088039 6.353872 -23.140716 3.687557 -0.000000 0.005600 -0.015300 -17.508107 4.313673 22.606128 2.050983 1.098994 -6.695741 2.475180 6.493470 30.497531 2.895500 2.447400 8.277200 -86.767591 -27.736068 49.813019 33.910852 -42.236982 -15.096328 1.867024 -1.504569 -92.112896 -7.125000 0.000000 0.000000 74.753116 11.625168 36.225652 -125.114638 57.553569 -93.072992 -1.495226 1.652855 -37.663221 7.125000 0.000000 0.000000 
6.925185 18.248491 -2.176581 -173.063594 -39.010172 -173.327962 -11.239260 -5.674303 -25.937210 1.112609 7.746236 25.434097 -0.524582 3.404235 -2.685099 0.003100 0.359200 0.987000 7.019610 30.053541 -26.199746 -2.120911 -6.047489 21.766540 6.374172 -23.154185 3.483472 -0.000600 0.164600 -0.452300 -17.564375 4.364309 22.670462 2.088267 1.107032 -6.641890 2.453447 6.457794 30.370855 2.884200 2.434100 8.255500 -86.438430 -27.599055 49.340888 33.348761 -41.817489 -14.682488 1.880569 -1.503069 -92.192182 -7.125000 0.000000 0.000000 75.095131 11.485305 37.295303 -125.079389 57.610812 -93.103849 -1.498000 1.673482 -36.693282 7.125000 0.000000 0.000000 
6.916870 18.242303 -2.223860 -173.399465 -38.866136 -173.183260 -11.485522 -5.525124 -25.775548 1.132930 7.766755 25.545209 -0.507060 3.359968 -2.935141 0.001100 0.213100 0.585500 6.737967 30.004875 -26.207517 -2.057746 -5.955560 21.479552 6.324453 -22.929109 3.249323 -0.002700 0.336200 -0.923700 -17.592304 4.448031 22.744894 2.130586 1.133631 -6.532651 2.626875 6.407095 30.253284 2.945700 2.423100 8.224300 -86.092993 -27.472484 49.029820 32.733917 -41.348091 -14.240262 1.902551 -1.488067 -92.164617 -7.125000 0.000000 0.000000 75.392227 11.317109 38.311808 -125.064234 57.654550 -93.152127 -1.499919 1.698510 -35.695252 7.125000 0.000000 0.000000 
